<mxfile host="app.diagrams.net" modified="2023-05-05T04:39:40.060Z" agent="Mozilla/5.0 (Windows NT 10.0; Win64; x64) AppleWebKit/537.36 (KHTML, like Gecko) Chrome/112.0.0.0 Safari/537.36" etag="Wdz-t5u1xICBPBHhQw6A" version="21.2.7" type="google">
  <diagram name="P치gina-1" id="Es4l3UgIe3so6gF4gk8v">
    <mxGraphModel grid="1" page="1" gridSize="10" guides="1" tooltips="1" connect="1" arrows="1" fold="1" pageScale="1" pageWidth="827" pageHeight="1169" math="0" shadow="0">
      <root>
        <mxCell id="0" />
        <mxCell id="1" parent="0" />
        <mxCell id="6oKAW_8xvwlqi4WkeRnO-1" value="Classname" style="swimlane;fontStyle=1;align=center;verticalAlign=top;childLayout=stackLayout;horizontal=1;startSize=26;horizontalStack=0;resizeParent=1;resizeParentMax=0;resizeLast=0;collapsible=1;marginBottom=0;whiteSpace=wrap;html=1;" vertex="1" parent="1">
          <mxGeometry x="330" y="240" width="160" height="86" as="geometry" />
        </mxCell>
        <mxCell id="6oKAW_8xvwlqi4WkeRnO-2" value="+ field: type" style="text;strokeColor=none;fillColor=none;align=left;verticalAlign=top;spacingLeft=4;spacingRight=4;overflow=hidden;rotatable=0;points=[[0,0.5],[1,0.5]];portConstraint=eastwest;whiteSpace=wrap;html=1;" vertex="1" parent="6oKAW_8xvwlqi4WkeRnO-1">
          <mxGeometry y="26" width="160" height="26" as="geometry" />
        </mxCell>
        <mxCell id="6oKAW_8xvwlqi4WkeRnO-3" value="" style="line;strokeWidth=1;fillColor=none;align=left;verticalAlign=middle;spacingTop=-1;spacingLeft=3;spacingRight=3;rotatable=0;labelPosition=right;points=[];portConstraint=eastwest;strokeColor=inherit;" vertex="1" parent="6oKAW_8xvwlqi4WkeRnO-1">
          <mxGeometry y="52" width="160" height="8" as="geometry" />
        </mxCell>
        <mxCell id="6oKAW_8xvwlqi4WkeRnO-4" value="+ method(type): type" style="text;strokeColor=none;fillColor=none;align=left;verticalAlign=top;spacingLeft=4;spacingRight=4;overflow=hidden;rotatable=0;points=[[0,0.5],[1,0.5]];portConstraint=eastwest;whiteSpace=wrap;html=1;" vertex="1" parent="6oKAW_8xvwlqi4WkeRnO-1">
          <mxGeometry y="60" width="160" height="26" as="geometry" />
        </mxCell>
        <mxCell id="EW_tvZZKtrs5_bF8WcTT-1" value="Emsa" style="swimlane;fontStyle=1;align=center;verticalAlign=top;childLayout=stackLayout;horizontal=1;startSize=26;horizontalStack=0;resizeParent=1;resizeParentMax=0;resizeLast=0;collapsible=1;marginBottom=0;" vertex="1" parent="1">
          <mxGeometry x="-170" y="1660" width="270" height="210" as="geometry">
            <mxRectangle x="-220" y="1849" width="90" height="30" as="alternateBounds" />
          </mxGeometry>
        </mxCell>
        <mxCell id="EW_tvZZKtrs5_bF8WcTT-2" value="" style="line;strokeWidth=1;fillColor=none;align=left;verticalAlign=middle;spacingTop=-1;spacingLeft=3;spacingRight=3;rotatable=0;labelPosition=right;points=[];portConstraint=eastwest;strokeColor=inherit;" vertex="1" parent="EW_tvZZKtrs5_bF8WcTT-1">
          <mxGeometry y="26" width="270" height="84" as="geometry" />
        </mxCell>
        <mxCell id="mKXJWYVr7ES_2XR1ClEm-6" value="asignarasientos():void&#xa;cobrar(monto:entero): void&#xa;mostrarevento(): void&#xa;autenticar(email:string, contrase침a:string):boolean" style="text;strokeColor=none;fillColor=none;align=left;verticalAlign=top;spacingLeft=4;spacingRight=4;overflow=hidden;rotatable=0;points=[[0,0.5],[1,0.5]];portConstraint=eastwest;" vertex="1" parent="EW_tvZZKtrs5_bF8WcTT-1">
          <mxGeometry y="110" width="270" height="100" as="geometry" />
        </mxCell>
        <mxCell id="EW_tvZZKtrs5_bF8WcTT-3" value="Usuario" style="swimlane;fontStyle=1;align=center;verticalAlign=top;childLayout=stackLayout;horizontal=1;startSize=26;horizontalStack=0;resizeParent=1;resizeParentMax=0;resizeLast=0;collapsible=1;marginBottom=0;" vertex="1" parent="1">
          <mxGeometry x="140" y="1375" width="230" height="210" as="geometry">
            <mxRectangle x="-220" y="1849" width="90" height="30" as="alternateBounds" />
          </mxGeometry>
        </mxCell>
        <mxCell id="mKXJWYVr7ES_2XR1ClEm-1" value="-nombres: string&lt;br&gt;- apellidos: string&lt;br&gt;-contrase침a: string&lt;br&gt;-email: string&lt;br&gt;-telefono: int" style="text;html=1;align=center;verticalAlign=middle;resizable=0;points=[];autosize=1;strokeColor=none;fillColor=none;" vertex="1" parent="EW_tvZZKtrs5_bF8WcTT-3">
          <mxGeometry y="26" width="230" height="90" as="geometry" />
        </mxCell>
        <mxCell id="EW_tvZZKtrs5_bF8WcTT-4" value="" style="line;strokeWidth=1;fillColor=none;align=left;verticalAlign=middle;spacingTop=-1;spacingLeft=3;spacingRight=3;rotatable=0;labelPosition=right;points=[];portConstraint=eastwest;strokeColor=inherit;" vertex="1" parent="EW_tvZZKtrs5_bF8WcTT-3">
          <mxGeometry y="116" width="230" height="54" as="geometry" />
        </mxCell>
        <mxCell id="mKXJWYVr7ES_2XR1ClEm-2" value="- consultarevento():void&lt;br&gt;-comprarboletos():void" style="text;html=1;align=center;verticalAlign=middle;resizable=0;points=[];autosize=1;strokeColor=none;fillColor=none;" vertex="1" parent="EW_tvZZKtrs5_bF8WcTT-3">
          <mxGeometry y="170" width="230" height="40" as="geometry" />
        </mxCell>
        <mxCell id="EW_tvZZKtrs5_bF8WcTT-5" value="Asientos" style="swimlane;fontStyle=1;align=center;verticalAlign=top;childLayout=stackLayout;horizontal=1;startSize=26;horizontalStack=0;resizeParent=1;resizeParentMax=0;resizeLast=0;collapsible=1;marginBottom=0;" vertex="1" parent="1">
          <mxGeometry x="-180" y="1380" width="270" height="172" as="geometry">
            <mxRectangle x="-220" y="1849" width="90" height="30" as="alternateBounds" />
          </mxGeometry>
        </mxCell>
        <mxCell id="mKXJWYVr7ES_2XR1ClEm-7" value="-fila: string&lt;br&gt;-numeroasiento:entero&lt;br&gt;-precio:sting&lt;br&gt;-seccion:string" style="text;html=1;align=center;verticalAlign=middle;resizable=0;points=[];autosize=1;strokeColor=none;fillColor=none;" vertex="1" parent="EW_tvZZKtrs5_bF8WcTT-5">
          <mxGeometry y="26" width="270" height="70" as="geometry" />
        </mxCell>
        <mxCell id="EW_tvZZKtrs5_bF8WcTT-6" value="" style="line;strokeWidth=1;fillColor=none;align=left;verticalAlign=middle;spacingTop=-1;spacingLeft=3;spacingRight=3;rotatable=0;labelPosition=right;points=[];portConstraint=eastwest;strokeColor=inherit;" vertex="1" parent="EW_tvZZKtrs5_bF8WcTT-5">
          <mxGeometry y="96" width="270" height="76" as="geometry" />
        </mxCell>
        <mxCell id="EW_tvZZKtrs5_bF8WcTT-7" value="Evento" style="swimlane;fontStyle=1;align=center;verticalAlign=top;childLayout=stackLayout;horizontal=1;startSize=26;horizontalStack=0;resizeParent=1;resizeParentMax=0;resizeLast=0;collapsible=1;marginBottom=0;" vertex="1" parent="1">
          <mxGeometry x="-495" y="1375" width="260" height="182" as="geometry">
            <mxRectangle x="-220" y="1849" width="90" height="30" as="alternateBounds" />
          </mxGeometry>
        </mxCell>
        <mxCell id="mKXJWYVr7ES_2XR1ClEm-8" value="-artista: string&lt;br&gt;-fecha:DateTime&lt;br&gt;-descripcionevento:string&lt;br&gt;-responsable: string&lt;br&gt;-eventid: int&lt;br&gt;-imagen:byte[ ]&lt;br&gt;" style="text;html=1;align=center;verticalAlign=middle;resizable=0;points=[];autosize=1;strokeColor=none;fillColor=none;" vertex="1" parent="EW_tvZZKtrs5_bF8WcTT-7">
          <mxGeometry y="26" width="260" height="100" as="geometry" />
        </mxCell>
        <mxCell id="EW_tvZZKtrs5_bF8WcTT-8" value="" style="line;strokeWidth=1;fillColor=none;align=left;verticalAlign=middle;spacingTop=-1;spacingLeft=3;spacingRight=3;rotatable=0;labelPosition=right;points=[];portConstraint=eastwest;strokeColor=inherit;" vertex="1" parent="EW_tvZZKtrs5_bF8WcTT-7">
          <mxGeometry y="126" width="260" height="56" as="geometry" />
        </mxCell>
        <mxCell id="EW_tvZZKtrs5_bF8WcTT-9" value="Administrador" style="swimlane;fontStyle=1;align=center;verticalAlign=top;childLayout=stackLayout;horizontal=1;startSize=26;horizontalStack=0;resizeParent=1;resizeParentMax=0;resizeLast=0;collapsible=1;marginBottom=0;" vertex="1" parent="1">
          <mxGeometry x="-548" y="1659" width="270" height="190" as="geometry">
            <mxRectangle x="-220" y="1849" width="90" height="30" as="alternateBounds" />
          </mxGeometry>
        </mxCell>
        <mxCell id="mKXJWYVr7ES_2XR1ClEm-5" value="-usuario: string&lt;br&gt;-contrase침a: string" style="text;html=1;align=center;verticalAlign=middle;resizable=0;points=[];autosize=1;strokeColor=none;fillColor=none;" vertex="1" parent="EW_tvZZKtrs5_bF8WcTT-9">
          <mxGeometry y="26" width="270" height="40" as="geometry" />
        </mxCell>
        <mxCell id="EW_tvZZKtrs5_bF8WcTT-10" value="" style="line;strokeWidth=1;fillColor=none;align=left;verticalAlign=middle;spacingTop=-1;spacingLeft=3;spacingRight=3;rotatable=0;labelPosition=right;points=[];portConstraint=eastwest;strokeColor=inherit;" vertex="1" parent="EW_tvZZKtrs5_bF8WcTT-9">
          <mxGeometry y="66" width="270" height="84" as="geometry" />
        </mxCell>
        <mxCell id="EW_tvZZKtrs5_bF8WcTT-11" value="crearEvento():void&lt;br&gt;modificarEvento():void" style="text;html=1;align=center;verticalAlign=middle;resizable=0;points=[];autosize=1;strokeColor=none;fillColor=none;" vertex="1" parent="EW_tvZZKtrs5_bF8WcTT-9">
          <mxGeometry y="150" width="270" height="40" as="geometry" />
        </mxCell>
        <mxCell id="mKXJWYVr7ES_2XR1ClEm-10" value="" style="endArrow=diamondThin;endFill=1;endSize=24;html=1;rounded=0;entryX=0;entryY=0.5;entryDx=0;entryDy=0;exitX=1.019;exitY=0.532;exitDx=0;exitDy=0;edgeStyle=orthogonalEdgeStyle;exitPerimeter=0;" edge="1" parent="1" source="mKXJWYVr7ES_2XR1ClEm-8" target="EW_tvZZKtrs5_bF8WcTT-1">
          <mxGeometry width="160" relative="1" as="geometry">
            <mxPoint x="25" y="1736" as="sourcePoint" />
            <mxPoint x="160" y="1849" as="targetPoint" />
          </mxGeometry>
        </mxCell>
        <mxCell id="mKXJWYVr7ES_2XR1ClEm-12" value="" style="endArrow=none;html=1;edgeStyle=orthogonalEdgeStyle;rounded=0;entryX=0.5;entryY=0;entryDx=0;entryDy=0;" edge="1" parent="1" source="EW_tvZZKtrs5_bF8WcTT-5" target="EW_tvZZKtrs5_bF8WcTT-7">
          <mxGeometry relative="1" as="geometry">
            <mxPoint x="-190" y="1890" as="sourcePoint" />
            <mxPoint x="-442" y="1786" as="targetPoint" />
            <Array as="points">
              <mxPoint x="-45" y="1340" />
              <mxPoint x="-360" y="1340" />
            </Array>
          </mxGeometry>
        </mxCell>
        <mxCell id="mKXJWYVr7ES_2XR1ClEm-14" value="" style="endArrow=none;html=1;edgeStyle=orthogonalEdgeStyle;rounded=0;" edge="1" parent="1" target="EW_tvZZKtrs5_bF8WcTT-9">
          <mxGeometry relative="1" as="geometry">
            <mxPoint x="-60" y="1660" as="sourcePoint" />
            <mxPoint x="-380" y="1655" as="targetPoint" />
            <Array as="points">
              <mxPoint x="-60" y="1620" />
              <mxPoint x="-375" y="1620" />
            </Array>
          </mxGeometry>
        </mxCell>
        <mxCell id="mKXJWYVr7ES_2XR1ClEm-15" value="" style="endArrow=none;html=1;edgeStyle=orthogonalEdgeStyle;rounded=0;entryX=0.25;entryY=0;entryDx=0;entryDy=0;" edge="1" parent="1" source="EW_tvZZKtrs5_bF8WcTT-3" target="EW_tvZZKtrs5_bF8WcTT-7">
          <mxGeometry relative="1" as="geometry">
            <mxPoint x="-35" y="1390" as="sourcePoint" />
            <mxPoint x="-355" y="1385" as="targetPoint" />
            <Array as="points">
              <mxPoint x="255" y="1310" />
              <mxPoint x="-440" y="1310" />
              <mxPoint x="-440" y="1375" />
            </Array>
          </mxGeometry>
        </mxCell>
        <mxCell id="mKXJWYVr7ES_2XR1ClEm-16" value="" style="endArrow=none;html=1;edgeStyle=orthogonalEdgeStyle;rounded=0;entryX=1.021;entryY=0.152;entryDx=0;entryDy=0;entryPerimeter=0;exitX=0.476;exitY=1.028;exitDx=0;exitDy=0;exitPerimeter=0;" edge="1" parent="1" source="mKXJWYVr7ES_2XR1ClEm-2" target="mKXJWYVr7ES_2XR1ClEm-6">
          <mxGeometry relative="1" as="geometry">
            <mxPoint x="1015" y="1705" as="sourcePoint" />
            <mxPoint x="330" y="1705" as="targetPoint" />
            <Array as="points">
              <mxPoint x="250" y="1785" />
            </Array>
          </mxGeometry>
        </mxCell>
      </root>
    </mxGraphModel>
  </diagram>
</mxfile>
